<?xml version="1.0" encoding="UTF-8" standalone="no"?>
<svg
   xmlns:dc="http://purl.org/dc/elements/1.1/"
   xmlns:cc="http://creativecommons.org/ns#"
   xmlns:rdf="http://www.w3.org/1999/02/22-rdf-syntax-ns#"
   xmlns:svg="http://www.w3.org/2000/svg"
   xmlns="http://www.w3.org/2000/svg"
   xmlns:sodipodi="http://sodipodi.sourceforge.net/DTD/sodipodi-0.dtd"
   xmlns:inkscape="http://www.inkscape.org/namespaces/inkscape"
   sodipodi:docname="Safaitic mim.svg"
   inkscape:version="1.0 (4035a4fb49, 2020-05-01)"
   id="svg8"
   version="1.1"
   viewBox="0 0 9.9999999 15"
   height="15mm"
   width="10mm">
  <defs
     id="defs2" />
  <sodipodi:namedview
     inkscape:window-maximized="1"
     inkscape:window-y="0"
     inkscape:window-x="1680"
     inkscape:window-height="1029"
     inkscape:window-width="1680"
     fit-margin-bottom="0"
     fit-margin-right="0"
     fit-margin-left="0"
     fit-margin-top="0"
     showgrid="false"
     inkscape:document-rotation="0"
     inkscape:current-layer="layer1"
     inkscape:document-units="mm"
     inkscape:cy="28.346457"
     inkscape:cx="18.897638"
     inkscape:zoom="5.6"
     inkscape:pageshadow="2"
     inkscape:pageopacity="0.0"
     borderopacity="1.0"
     bordercolor="#666666"
     pagecolor="#ffffff"
     id="base" />
  <metadata
     id="metadata5">
    <rdf:RDF>
      <cc:Work
         rdf:about="">
        <dc:format>image/svg+xml</dc:format>
        <dc:type
           rdf:resource="http://purl.org/dc/dcmitype/StillImage" />
        <dc:title></dc:title>
      </cc:Work>
    </rdf:RDF>
  </metadata>
  <g
     transform="translate(-68.519561,-99.23593)"
     id="layer1"
     inkscape:groupmode="layer"
     inkscape:label="Layer 1">
    <path
       style="fill:none;stroke:#000000;stroke-width:1;stroke-linecap:butt;stroke-linejoin:round;stroke-miterlimit:4;stroke-dasharray:none;stroke-opacity:1"
       d="m 76.143718,103.87525 c 0,0 -0.31949,-0.80911 -1.180444,-1.24647 -0.860951,-0.43735 -2.714167,-0.71872 -3.717673,0.13812 -1.003507,0.85684 -1.229212,2.58014 -1.267886,3.91746 -0.03867,1.33732 0.152273,2.70842 0.707284,3.31855 0.555014,0.61014 1.705919,1.3387 2.974552,1.25011 1.268632,-0.0886 2.8253,-1.11537 3.01082,-1.55775 0.185518,-0.44238 0.864145,-1.38322 -0.13344,-1.3366 -0.997585,0.0466 -2.371833,0.70191 -3.068203,0.53441 -0.696368,-0.16749 -1.439339,-1.28469 -1.184487,-2.07805 0.254849,-0.79336 0.591193,-2.268 1.274654,-2.30544 0.683461,-0.0374 2.008603,0.28403 2.584823,-0.63434 z"
       id="path1042" />
  </g>
</svg>
